<?xml version="1.0" encoding="UTF-8" standalone="no"?>
<svg
   xmlns:i="&amp;ns_ai;"
   xmlns:dc="http://purl.org/dc/elements/1.1/"
   xmlns:cc="http://creativecommons.org/ns#"
   xmlns:rdf="http://www.w3.org/1999/02/22-rdf-syntax-ns#"
   xmlns:svg="http://www.w3.org/2000/svg"
   xmlns="http://www.w3.org/2000/svg"
   xmlns:xlink="http://www.w3.org/1999/xlink"
   height="337.47385"
   width="600"
   xml:space="preserve"
   viewBox="0 0 600.00003 337.47385"
   y="0px"
   x="0px"
   id="Layer_1"
   version="1.1"><metadata
     id="metadata49"><rdf:RDF><cc:Work
         rdf:about=""><dc:format>image/svg+xml</dc:format><dc:type
           rdf:resource="http://purl.org/dc/dcmitype/StillImage" /><dc:title></dc:title></cc:Work></rdf:RDF></metadata><defs
     id="defs47" /><style
     id="style3"
     type="text/css">
	.st0{fill:#3C7383;}
	.st1{fill:#A389BB;}
	.st2{fill:#663B8E;}
	.st3{fill:#9BB7BF;}
</style><switch
     transform="matrix(1.1227172,0,0,1.1227172,-21.087177,79.915305)"
     id="switch5"><g
       id="g7"
       i:extraneous="self"><path
         style="fill:#3c7383"
         id="path9"
         d="m 203.7,148.2 0,-50.4 -23,39.3 -2.6,0 -23,-39.3 0,50.4 -4.2,0 0,-58.3 4.2,0 24.3,41.7 24.3,-41.7 4.2,0 0,58.3 -4.2,0 z"
         class="st0" /><path
         style="fill:#3c7383"
         id="path11"
         d="m 221.9,148.2 0,-43.4 4.1,0 0,43.4 -4.1,0 z"
         class="st0" /><path
         style="fill:#3c7383"
         id="path13"
         d="m 235.8,126.7 c 0,-3 0.5,-5.9 1.6,-8.5 1,-2.7 2.5,-5 4.4,-7 1.9,-2 4.1,-3.5 6.7,-4.7 2.6,-1.1 5.4,-1.7 8.5,-1.7 3.9,0 7.3,0.9 10.2,2.6 2.9,1.8 5.2,4.2 6.7,7.3 l -4,1.3 c -1.3,-2.4 -3.1,-4.2 -5.4,-5.5 -2.4,-1.3 -4.9,-2 -7.7,-2 -2.4,0 -4.5,0.5 -6.6,1.4 -2,0.9 -3.8,2.2 -5.3,3.9 -1.5,1.6 -2.7,3.6 -3.5,5.8 -0.8,2.2 -1.3,4.6 -1.3,7.2 0,2.6 0.5,5 1.4,7.3 0.9,2.3 2.1,4.2 3.6,5.9 1.5,1.7 3.3,3 5.3,4 2,1 4.2,1.5 6.5,1.5 1.5,0 2.9,-0.2 4.4,-0.7 1.4,-0.4 2.8,-1 4,-1.7 1.2,-0.7 2.3,-1.5 3.2,-2.5 0.9,-1 1.5,-2 1.8,-3 l 4,1.1 c -0.5,1.5 -1.4,2.9 -2.5,4.1 -1.1,1.3 -2.4,2.4 -4,3.3 -1.5,0.9 -3.2,1.7 -5,2.2 -1.8,0.5 -3.7,0.8 -5.7,0.8 -3,0 -5.8,-0.6 -8.4,-1.8 -2.6,-1.2 -4.8,-2.8 -6.7,-4.8 -1.9,-2.1 -3.4,-4.4 -4.5,-7.1 -1.2,-2.8 -1.7,-5.7 -1.7,-8.7 z"
         class="st0" /><path
         style="fill:#3c7383"
         id="path15"
         d="m 303.6,109.2 c -3.9,0.1 -7.2,1.2 -10.1,3.4 -2.8,2.2 -4.8,5.1 -6,8.9 l 0,26.7 -4.1,0 0,-42.7 3.9,0 0,10.5 c 1.5,-3 3.4,-5.5 5.9,-7.3 2.4,-1.9 5,-3 7.8,-3.2 0.5,0 1,0 1.5,0 0.4,0 0.8,0 1.1,0 l 0,3.7 z"
         class="st0" /><path
         style="fill:#3c7383"
         id="path17"
         d="m 327.5,149 c -3,0 -5.8,-0.6 -8.3,-1.8 -2.5,-1.2 -4.7,-2.8 -6.6,-4.8 -1.9,-2 -3.3,-4.4 -4.3,-7.1 -1,-2.7 -1.6,-5.5 -1.6,-8.5 0,-3 0.5,-5.9 1.6,-8.5 1.1,-2.7 2.5,-5 4.4,-7.1 1.9,-2 4.1,-3.6 6.6,-4.8 2.5,-1.2 5.3,-1.8 8.2,-1.8 3,0 5.7,0.6 8.2,1.8 2.5,1.2 4.8,2.8 6.6,4.8 1.9,2 3.4,4.4 4.4,7.1 1.1,2.7 1.6,5.5 1.6,8.5 0,3 -0.5,5.8 -1.6,8.5 -1.1,2.7 -2.5,5 -4.4,7.1 -1.9,2 -4.1,3.6 -6.6,4.8 -2.5,1.2 -5.2,1.8 -8.2,1.8 z m -16.6,-21.9 c 0,2.5 0.4,4.9 1.3,7.1 0.9,2.2 2.1,4.1 3.6,5.8 1.5,1.6 3.3,2.9 5.3,3.9 2,1 4.2,1.4 6.5,1.4 2.3,0 4.5,-0.5 6.5,-1.4 2,-1 3.8,-2.3 5.3,-4 1.5,-1.7 2.7,-3.7 3.6,-5.9 0.9,-2.2 1.4,-4.6 1.4,-7.2 0,-2.5 -0.5,-4.9 -1.4,-7.1 -0.9,-2.2 -2.1,-4.2 -3.6,-5.8 -1.5,-1.7 -3.3,-3 -5.3,-4 -2,-1 -4.2,-1.5 -6.5,-1.5 -2.2,0 -4.4,0.5 -6.4,1.5 -2,1 -3.8,2.3 -5.3,4 -1.5,1.7 -2.7,3.7 -3.6,5.9 -1,2.4 -1.4,4.8 -1.4,7.3 z"
         class="st0" /><path
         style="fill:#3c7383"
         id="path19"
         d="m 383,113 c -3.5,0.1 -6.6,0.9 -9.3,2.4 -2.7,1.5 -4.6,3.7 -5.8,6.4 l 0,26.3 -9,0 0,-42.9 8.4,0 0,9.6 c 1.5,-3 3.5,-5.4 5.9,-7.2 2.4,-1.9 4.9,-2.8 7.6,-2.8 0.5,0 1,0 1.4,0 0.4,0 0.7,0 0.9,0.1 l 0,8.1 z"
         class="st0" /><path
         style="fill:#3c7383"
         id="path21"
         d="m 407.6,149 c -3.3,0 -6.4,-0.6 -9.1,-1.8 -2.7,-1.2 -5.1,-2.8 -7,-4.8 -1.9,-2 -3.4,-4.4 -4.5,-7.1 -1.1,-2.7 -1.6,-5.5 -1.6,-8.5 0,-3 0.5,-5.9 1.6,-8.6 1.1,-2.7 2.6,-5.1 4.5,-7.1 1.9,-2.1 4.3,-3.7 7,-4.8 2.7,-1.2 5.8,-1.8 9.2,-1.8 3.3,0 6.4,0.6 9.1,1.8 2.7,1.2 5,2.8 6.9,4.8 1.9,2 3.4,4.3 4.4,7 1,2.7 1.5,5.4 1.5,8.3 0,0.7 0,1.3 -0.1,1.8 -0.1,0.6 -0.1,1.1 -0.2,1.4 l -34.3,0 c 0.2,1.9 0.6,3.6 1.4,5.2 0.7,1.5 1.7,2.9 2.9,4 1.2,1.1 2.5,2 4,2.6 1.5,0.6 3.1,0.9 4.7,0.9 1.2,0 2.4,-0.2 3.6,-0.5 1.2,-0.3 2.3,-0.7 3.2,-1.3 1,-0.6 1.9,-1.3 2.6,-2.1 0.8,-0.8 1.4,-1.7 1.8,-2.7 l 7.7,2.2 c -1.5,3.2 -3.9,5.9 -7.3,7.9 -3.5,2.2 -7.5,3.2 -12,3.2 z m 13,-25.5 c -0.2,-1.8 -0.6,-3.5 -1.4,-5 -0.7,-1.5 -1.7,-2.8 -2.8,-3.9 -1.1,-1.1 -2.5,-1.9 -4,-2.5 -1.5,-0.6 -3.1,-0.9 -4.8,-0.9 -1.7,0 -3.3,0.3 -4.8,0.9 -1.5,0.6 -2.8,1.4 -4,2.5 -1.1,1.1 -2.1,2.4 -2.8,3.9 -0.7,1.5 -1.1,3.2 -1.3,5 l 25.9,0 z"
         class="st0" /><path
         style="fill:#3c7383"
         id="path23"
         d="m 448.4,149 c -2.1,0 -4,-0.3 -5.8,-1 -1.8,-0.7 -3.3,-1.6 -4.6,-2.8 -1.3,-1.2 -2.3,-2.6 -3,-4.3 -0.7,-1.6 -1.1,-3.4 -1.1,-5.3 0,-2 0.4,-3.9 1.3,-5.5 0.9,-1.6 2.1,-3.1 3.7,-4.3 1.6,-1.2 3.5,-2.1 5.7,-2.8 2.2,-0.7 4.7,-1 7.3,-1 2,0 4,0.2 6,0.5 2,0.4 3.7,0.8 5.3,1.4 l 0,-3 c 0,-3.2 -0.9,-5.6 -2.7,-7.4 -1.8,-1.8 -4.4,-2.7 -7.8,-2.7 -2.3,0 -4.6,0.4 -6.8,1.3 -2.2,0.8 -4.5,2.1 -6.9,3.7 l -2.8,-5.7 c 5.5,-3.7 11.3,-5.6 17.2,-5.6 5.9,0 10.5,1.5 13.8,4.5 3.3,3 4.9,7.3 4.9,13 l 0,15.5 c 0,1 0.2,1.8 0.6,2.2 0.4,0.4 1,0.7 2,0.7 l 0,7.7 c -0.9,0.2 -1.7,0.3 -2.4,0.3 -0.7,0.1 -1.4,0.1 -2,0.1 -1.8,-0.1 -3.1,-0.6 -4,-1.4 -0.9,-0.8 -1.5,-1.9 -1.7,-3.3 l -0.2,-2.7 c -1.9,2.5 -4.3,4.4 -7.1,5.8 -2.7,1.4 -5.7,2.1 -8.9,2.1 z m 2.4,-6.7 c 2.2,0 4.3,-0.4 6.2,-1.2 1.9,-0.8 3.5,-1.9 4.6,-3.3 1.1,-1 1.7,-2 1.7,-3.1 l 0,-5.7 c -1.5,-0.6 -3.2,-1.1 -4.9,-1.4 -1.7,-0.3 -3.4,-0.5 -5,-0.5 -3.2,0 -5.9,0.7 -7.9,2.1 -2,1.4 -3.1,3.2 -3.1,5.5 0,2.1 0.8,3.9 2.4,5.4 1.6,1.5 3.6,2.2 6,2.2 z"
         class="st0" /><path
         style="fill:#3c7383"
         id="path25"
         d="m 553.2,145.9 c -1.2,0.5 -2.8,1.2 -4.8,1.8 -2,0.7 -4.2,1 -6.5,1 -1.4,0 -2.7,-0.2 -4,-0.6 -1.2,-0.4 -2.3,-1 -3.3,-1.7 -1,-0.8 -1.7,-1.8 -2.3,-3 -0.5,-1.2 -0.8,-2.7 -0.8,-4.5 l 0,-26.8 -5.7,0 0,-7 5.7,0 0,-14 9,0 0,14.1 9.4,0 0,7 -9.4,0 0,24 c 0,1.5 0.4,2.6 1.3,3.3 0.9,0.7 1.9,1 3.2,1 1.3,0 2.5,-0.2 3.6,-0.7 1.1,-0.4 2,-0.8 2.5,-1.1 l 2.1,7.2 z"
         class="st0" /><ellipse
         style="fill:#3c7383"
         id="ellipse27"
         ry="2.5"
         rx="2.3"
         cy="95.5"
         cx="224"
         class="st0" /><g
         id="g29"><path
           style="fill:#a389bb"
           id="path31"
           d="m 62.2,94.2 c -6,0 -11.7,3.6 -14.1,9.5 -3.2,7.8 0.6,16.7 8.4,19.8 1.9,0.8 3.8,1.1 5.7,1.1 6,0 11.7,-3.6 14.1,-9.5 3.2,-7.8 -0.6,-16.7 -8.4,-19.8 -1.8,-0.8 -3.8,-1.1 -5.7,-1.1"
           class="st1" /><path
           style="fill:#663b8e"
           id="path33"
           d="m 121.7,45.8 c -4.9,0.9 -9.2,4.3 -11.2,9.2 -3.2,7.8 0.6,16.7 8.4,19.8 2.8,1.1 5.8,1.4 8.6,0.8 4.9,-0.9 9.2,-4.3 11.2,-9.2 3.2,-7.8 -0.6,-16.7 -8.4,-19.8 -2.9,-1.1 -5.8,-1.3 -8.6,-0.8"
           class="st2" /><path
           style="fill:#9bb7bf"
           id="path35"
           d="m 48.3,16.1 c -4.9,0.9 -9.2,4.3 -11.2,9.2 -3.1,7.9 0.6,16.7 8.4,19.9 2.8,1.1 5.8,1.4 8.6,0.8 C 59,45.1 63.3,41.7 65.3,36.8 68.5,29 64.7,20.1 56.9,17 54.1,15.8 51.1,15.6 48.3,16.1"
           class="st3" /><path
           style="fill:#3c7383"
           id="path37"
           d="m 122.3,106 c 0,-0.2 0.1,-0.3 0.1,-0.5 0,-0.1 0,-0.3 0.1,-0.4 0,-0.2 0,-0.4 0.1,-0.6 0,-0.2 0,-0.4 0,-0.6 0,-0.1 0,-0.2 0,-0.4 0,-0.1 0,-0.3 0,-0.4 l 0,-0.3 c 0,-0.1 0,-0.3 0,-0.4 0,-0.2 0,-0.3 0,-0.4 l 0,-0.2 c 0,-0.2 0,-0.4 -0.1,-0.5 l 0,-0.2 c 0,-0.2 -0.1,-0.4 -0.1,-0.6 l 0,-0.1 c 0,-0.2 -0.1,-0.3 -0.1,-0.5 l -0.1,-0.2 c 0,-0.1 -0.1,-0.3 -0.1,-0.4 L 122,99 c 0,-0.1 -0.1,-0.3 -0.1,-0.4 0,-0.1 -0.1,-0.2 -0.1,-0.3 0,-0.1 -0.1,-0.2 -0.1,-0.4 l -0.1,-0.2 c -0.1,-0.2 -0.1,-0.4 -0.2,-0.6 -0.1,-0.2 -0.2,-0.4 -0.3,-0.6 L 121,96.4 c -0.1,-0.2 -0.2,-0.3 -0.2,-0.5 l -0.1,-0.2 c -0.1,-0.2 -0.2,-0.3 -0.3,-0.5 l 0,-0.1 c -0.1,-0.2 -0.2,-0.4 -0.3,-0.5 -0.1,-0.2 -0.2,-0.4 -0.4,-0.6 l -0.1,-0.1 c -0.1,-0.2 -0.2,-0.3 -0.4,-0.5 -0.1,-0.2 -0.3,-0.4 -0.4,-0.5 l 0,0 c -0.1,-0.2 -0.3,-0.3 -0.4,-0.5 -0.2,-0.2 -0.3,-0.3 -0.5,-0.5 -0.2,-0.2 -0.3,-0.3 -0.5,-0.5 -0.2,-0.2 -0.4,-0.3 -0.5,-0.5 -0.2,-0.2 -0.5,-0.4 -0.8,-0.6 l -0.4,-0.2 c -0.2,-0.1 -0.4,-0.2 -0.5,-0.3 -0.2,-0.1 -0.4,-0.3 -0.7,-0.4 l -0.1,-0.1 c -0.2,-0.1 -0.4,-0.2 -0.6,-0.3 -0.2,-0.1 -0.4,-0.2 -0.7,-0.3 l -0.1,0 c -3.1,-1.3 -5.9,-3 -8.4,-5.1 -3.1,-2.7 -5.6,-5.9 -7.4,-9.5 l 0,0 c -1.4,-2.9 -2.4,-6.1 -2.9,-9.3 0,-0.1 0,-0.3 -0.1,-0.4 -0.8,-5.1 -4.2,-9.6 -9.3,-11.7 -5.1,-2.1 -10.7,-1.2 -14.8,1.9 -0.2,0.2 -0.4,0.3 -0.6,0.4 -1.9,1.6 -3.5,3.6 -4.4,6 -1,2.4 -1.3,4.9 -1,7.4 l 0,0 c 0,0.2 0.1,0.5 0.1,0.7 l 0,0 c 0.8,5.1 4.2,9.6 9.3,11.7 l 0,0 c 2.2,0.9 4.2,2 6.1,3.3 0.4,0.3 0.8,0.6 1.2,0.9 l 0,0 c 0.4,0.3 0.7,0.6 1.1,0.9 l 0,0 0,0 0,0 c 3.1,2.7 5.6,5.9 7.3,9.5 1.4,2.8 2.4,5.8 2.8,8.9 l 0,0.1 c 0,0.3 0.1,0.5 0.1,0.8 0,0.3 0.1,0.6 0.2,0.9 0.1,0.2 0.1,0.5 0.2,0.7 l 0.1,0.2 0,0 c 0.1,0.2 0.1,0.4 0.2,0.6 0.1,0.2 0.2,0.5 0.3,0.7 l 0.1,0.3 0,0 c 0.1,0.2 0.2,0.4 0.3,0.6 0.1,0.3 0.3,0.5 0.4,0.8 l 0,0 c 0.1,0.2 0.3,0.5 0.4,0.7 0.2,0.2 0.3,0.5 0.5,0.7 0.2,0.2 0.3,0.5 0.5,0.7 0.1,0.1 0.2,0.3 0.4,0.4 0.2,0.2 0.4,0.5 0.6,0.7 0.2,0.2 0.3,0.3 0.5,0.5 0.1,0.1 0.3,0.2 0.4,0.4 0.2,0.2 0.4,0.4 0.6,0.5 0.2,0.2 0.5,0.3 0.7,0.5 0.2,0.2 0.5,0.3 0.7,0.5 0.1,0.1 0.3,0.2 0.5,0.3 l 0.4,0.2 0.3,0.1 c 0.1,0.1 0.3,0.1 0.4,0.2 0.2,0.1 0.4,0.2 0.7,0.3 l 0.1,0 c 0.2,0.1 0.4,0.2 0.7,0.3 7.6,2.7 16,-1.1 19.1,-8.6 0.4,-0.5 0.7,-1.5 0.9,-2.4 z"
           class="st0" /><path
           style="fill:#3c7383"
           id="path39"
           d="m 24,84.9 c 0.1,0.1 0.3,0.2 0.4,0.3 0.1,0.1 0.2,0.2 0.3,0.3 0.2,0.1 0.3,0.2 0.5,0.3 0.2,0.1 0.3,0.2 0.5,0.4 l 0.3,0.2 0.3,0.2 0.2,0.1 c 0.1,0.1 0.2,0.1 0.4,0.2 0.1,0.1 0.3,0.1 0.4,0.2 l 0.2,0.1 c 0.2,0.1 0.3,0.1 0.5,0.2 l 0.1,0.1 c 0.2,0.1 0.4,0.1 0.6,0.2 l 0.1,0 c 0.2,0.1 0.3,0.1 0.5,0.2 l 0.2,0.1 c 0.1,0 0.3,0.1 0.4,0.1 l 0.2,0.1 c 0.1,0 0.3,0.1 0.4,0.1 0.1,0 0.2,0.1 0.3,0.1 0.1,0 0.2,0.1 0.4,0.1 l 0.2,0 c 0.2,0 0.4,0.1 0.6,0.1 0.2,0 0.4,0.1 0.6,0.1 l 0.1,0 c 0.2,0 0.4,0 0.5,0 l 0.2,0 c 0.2,0 0.4,0 0.6,0 l 0.1,0 c 0.2,0 0.4,0 0.6,0 0.2,0 0.4,0 0.7,0 l 0.1,0 c 0.2,0 0.4,0 0.6,-0.1 0.2,0 0.4,-0.1 0.7,-0.1 l 0.1,0 c 0.2,0 0.4,-0.1 0.6,-0.1 0.2,-0.1 0.5,-0.1 0.7,-0.2 0.2,-0.1 0.4,-0.1 0.7,-0.2 0.2,-0.1 0.4,-0.2 0.7,-0.2 0.3,-0.1 0.6,-0.2 0.9,-0.4 0.1,-0.1 0.3,-0.1 0.4,-0.2 0.2,-0.1 0.4,-0.2 0.6,-0.3 0.2,-0.1 0.4,-0.2 0.6,-0.4 l 0.1,-0.1 c 0.2,-0.1 0.4,-0.2 0.6,-0.4 0.2,-0.1 0.4,-0.3 0.6,-0.4 l 0.1,0 c 2.7,-2.1 5.6,-3.7 8.6,-4.7 C 56,79.5 60,79 64,79.2 l 0,0 c 3.3,0.2 6.5,0.9 9.5,2.1 0.1,0.1 0.3,0.1 0.4,0.2 4.8,1.8 10.4,1.2 14.8,-2.2 4.4,-3.4 6.4,-8.7 5.8,-13.8 0,-0.2 -0.1,-0.5 -0.1,-0.7 C 94,62.4 93,60 91.4,57.9 89.8,55.8 87.8,54.3 85.5,53.3 l 0,0 C 85.3,53.2 85,53.1 84.8,53 l 0,0 C 80,51.2 74.4,51.9 70.1,55.2 l 0,0 c -1.9,1.5 -3.8,2.7 -5.9,3.6 -0.5,0.2 -0.9,0.4 -1.4,0.6 l 0,0 c -0.4,0.2 -0.9,0.3 -1.3,0.5 l 0,0 0,0 0,0 c -3.9,1.3 -7.9,1.9 -11.9,1.6 -3.1,-0.2 -6.2,-0.9 -9.2,-2 l 0,0 C 40.1,59.4 39.9,59.3 39.6,59.2 39.3,59.1 39.1,59 38.8,58.9 38.6,58.8 38.3,58.8 38.1,58.7 l -0.2,-0.1 0,0 c -0.2,-0.1 -0.4,-0.1 -0.7,-0.1 -0.3,0 -0.5,-0.1 -0.8,-0.1 l -0.3,0 0,0 c -0.2,0 -0.5,0 -0.7,-0.1 -0.3,0 -0.6,0 -0.8,0 l 0,0 c -0.3,0 -0.6,0 -0.9,0 -0.3,0 -0.6,0 -0.9,0.1 -0.3,0 -0.6,0.1 -0.9,0.1 -0.2,0 -0.4,0.1 -0.5,0.1 -0.3,0.1 -0.6,0.1 -0.9,0.2 -0.2,0.1 -0.5,0.1 -0.7,0.2 -0.4,0 -0.6,0 -0.8,0.1 -0.3,0.1 -0.5,0.2 -0.8,0.3 -0.3,0.1 -0.5,0.2 -0.8,0.3 -0.3,0.1 -0.5,0.3 -0.8,0.4 -0.2,0.1 -0.3,0.2 -0.5,0.3 -0.1,0.1 -0.2,0.1 -0.4,0.2 l -0.2,0.2 c -0.1,0.1 -0.3,0.2 -0.4,0.3 -0.2,0.1 -0.4,0.3 -0.6,0.4 l -0.1,0 C 24.2,61.6 24,61.8 23.8,62 18,67.2 17,76.4 22,82.8 c 0.6,0.8 1.3,1.5 2,2.1 z"
           class="st0" /><path
           style="fill:#3c7383"
           id="path41"
           d="m 84.3,81.5 c 0.2,-0.1 0.3,-0.1 0.5,-0.2 0.1,-0.1 0.3,-0.1 0.4,-0.2 0.2,-0.1 0.4,-0.2 0.5,-0.2 0.2,-0.1 0.4,-0.2 0.6,-0.3 0.1,-0.1 0.2,-0.1 0.3,-0.2 0.1,-0.1 0.2,-0.1 0.3,-0.2 l 0.2,-0.1 c 0.1,-0.1 0.2,-0.1 0.4,-0.2 0.1,-0.1 0.2,-0.2 0.4,-0.2 l 0.2,-0.1 c 0.1,-0.1 0.3,-0.2 0.4,-0.3 l 0.1,-0.1 c 0.2,-0.1 0.3,-0.3 0.5,-0.4 l 0,0 c 0.1,-0.1 0.3,-0.2 0.4,-0.3 l 0.2,-0.2 C 89.8,78.2 89.9,78.1 90,78 l 0.2,-0.2 0.3,-0.3 0.2,-0.3 0.2,-0.3 0.1,-0.2 c 0.1,-0.1 0.3,-0.3 0.4,-0.5 0.1,-0.2 0.2,-0.3 0.4,-0.5 l 0.1,-0.1 c 0.1,-0.1 0.2,-0.3 0.3,-0.4 l 0.1,-0.1 c 0.1,-0.2 0.2,-0.3 0.3,-0.5 l 0,-0.1 c 0.1,-0.2 0.2,-0.4 0.3,-0.6 0.1,-0.2 0.2,-0.4 0.3,-0.6 l 0,-0.1 c 0.1,-0.2 0.2,-0.4 0.2,-0.6 0.1,-0.2 0.2,-0.4 0.2,-0.6 l 0,-0.1 c 0.1,-0.2 0.1,-0.4 0.2,-0.6 0.1,-0.2 0.1,-0.4 0.2,-0.7 0.1,-0.2 0.1,-0.5 0.1,-0.7 0,-0.2 0.1,-0.5 0.1,-0.7 0,-0.3 0.1,-0.6 0.1,-1 0,-0.1 0,-0.3 0,-0.4 0,-0.2 0,-0.4 0,-0.6 0,-0.3 0,-0.5 0,-0.8 l 0,-0.2 c 0,-0.2 0,-0.4 0,-0.7 0,-0.2 0,-0.5 -0.1,-0.7 l 0,-0.1 c -0.5,-3.4 -0.4,-6.7 0.2,-9.8 0.7,-4 2.3,-7.8 4.5,-11.2 l 0,0 c 1.8,-2.7 4,-5.2 6.6,-7.2 0.1,-0.1 0.2,-0.2 0.3,-0.3 4,-3.3 6.2,-8.5 5.4,-13.9 -0.8,-5.5 -4.4,-9.8 -9.1,-11.9 -0.2,-0.1 -0.5,-0.2 -0.7,-0.3 C 99.1,9.2 96.6,8.9 94,9.3 c -2.6,0.4 -4.9,1.4 -6.9,2.8 l 0,0 c -0.2,0.2 -0.4,0.3 -0.6,0.5 l 0,0 c -3.9,3.3 -6.2,8.4 -5.4,13.9 l 0,0 c 0.3,2.3 0.4,4.7 0.2,6.9 0,0.5 -0.1,1 -0.2,1.5 l 0,0 C 81,35.4 81,35.8 80.9,36.3 l 0,0 0,0 0,0 c -0.7,4 -2.3,7.8 -4.5,11.1 -1.7,2.6 -3.8,5 -6.3,7 l 0,0 c -0.2,0.2 -0.4,0.3 -0.6,0.5 -0.2,0.2 -0.4,0.4 -0.7,0.6 -0.2,0.2 -0.4,0.3 -0.5,0.5 l -0.2,0.2 0,0 c -0.2,0.2 -0.3,0.3 -0.4,0.5 -0.2,0.2 -0.3,0.4 -0.5,0.6 l -0.2,0.3 0,0 c -0.1,0.2 -0.3,0.4 -0.4,0.6 -0.2,0.2 -0.3,0.5 -0.5,0.7 l 0,0 c -0.1,0.2 -0.3,0.5 -0.4,0.7 -0.1,0.3 -0.3,0.5 -0.4,0.8 -0.1,0.3 -0.2,0.5 -0.3,0.8 -0.1,0.2 -0.1,0.3 -0.2,0.5 -0.1,0.3 -0.2,0.6 -0.3,0.9 -0.1,0.2 -0.1,0.5 -0.2,0.7 0,0.2 -0.1,0.3 -0.1,0.5 0,0.3 -0.1,0.6 -0.1,0.8 0,0.3 -0.1,0.6 -0.1,0.8 0,0.3 0,0.6 0,0.9 0,0.2 0,0.4 0,0.5 0,0.1 0,0.3 0,0.4 l 0,0.3 c 0,0.2 0,0.3 0,0.5 0,0.2 0,0.5 0.1,0.7 l 0,0.1 c 0,0.2 0.1,0.5 0.1,0.7 1.5,7.9 9,13.3 17.1,12.2 1.1,0.4 2.1,0.2 3,-0.2 z"
           class="st0" /></g><path
         style="fill:#3c7383"
         id="path43"
         d="m 502.1,148.9 c -6,0 -11.1,-2 -15.4,-6.1 -4.3,-4.1 -6.5,-9.4 -6.5,-16 0,-6.6 2.2,-11.9 6.8,-16.1 4.5,-4.1 10,-6.2 16.5,-6.2 6.5,0 11.9,2.2 16.4,6.7 l -5.3,6.6 c -3.7,-3.2 -7.5,-4.9 -11.2,-4.9 -3.8,0 -7.1,1.3 -9.8,3.8 -2.8,2.5 -4.2,5.7 -4.2,9.7 0,4 1.4,7.3 4.1,10.1 2.8,2.8 6.1,4.1 10.2,4.1 4,0 7.8,-1.8 11.4,-5.5 l 5.3,5.8 c -5.4,5.4 -11.4,8 -18.3,8 z"
         class="st0" /></g></switch></svg>
