<?xml version="1.0" encoding="UTF-8" standalone="no"?>
<svg
   xmlns:dc="http://purl.org/dc/elements/1.1/"
   xmlns:cc="http://creativecommons.org/ns#"
   xmlns:rdf="http://www.w3.org/1999/02/22-rdf-syntax-ns#"
   xmlns:svg="http://www.w3.org/2000/svg"
   xmlns="http://www.w3.org/2000/svg"
   height="108.97383"
   width="103.67503"
   xml:space="preserve"
   viewBox="-451.7 340.5 103.67503 108.97383"
   y="0px"
   x="0px"
   id="Layer_1"
   version="1.1"><metadata
     id="metadata23"><rdf:RDF><cc:Work
         rdf:about=""><dc:format>image/svg+xml</dc:format><dc:type
           rdf:resource="http://purl.org/dc/dcmitype/StillImage" /><dc:title></dc:title></cc:Work></rdf:RDF></metadata><defs
     id="defs21" /><style
     id="style3"
     type="text/css">
	.st0{fill:#9BB7BF;}
	.st1{fill:#3C7383;}
</style><g
     transform="translate(-7.924975,0.37383539)"
     id="g5"><path
       style="fill:#9bb7bf"
       id="path7"
       d="m -340.4,437 c 0,-0.2 0.1,-0.3 0.1,-0.5 0,-0.1 0,-0.3 0.1,-0.4 0,-0.2 0,-0.4 0.1,-0.6 0,-0.2 0,-0.4 0,-0.6 0,-0.1 0,-0.2 0,-0.4 0,-0.1 0,-0.3 0,-0.4 l 0,-0.3 c 0,-0.1 0,-0.3 0,-0.4 0,-0.2 0,-0.3 0,-0.4 l 0,-0.2 c 0,-0.2 0,-0.4 -0.1,-0.5 l 0,-0.2 c 0,-0.2 -0.1,-0.4 -0.1,-0.6 l 0,-0.1 c 0,-0.2 -0.1,-0.3 -0.1,-0.5 l -0.1,-0.2 c 0,-0.1 -0.1,-0.3 -0.1,-0.4 l -0.1,-0.2 c 0,-0.1 -0.1,-0.3 -0.1,-0.4 0,-0.1 -0.1,-0.2 -0.1,-0.3 0,-0.1 -0.1,-0.2 -0.1,-0.4 l -0.1,-0.2 c -0.1,-0.2 -0.1,-0.4 -0.2,-0.6 -0.1,-0.2 -0.2,-0.4 -0.3,-0.6 l -0.1,-0.1 c -0.1,-0.2 -0.2,-0.3 -0.2,-0.5 l -0.1,-0.2 c -0.1,-0.2 -0.2,-0.3 -0.3,-0.5 l 0,-0.1 c -0.1,-0.2 -0.2,-0.4 -0.3,-0.5 -0.1,-0.2 -0.2,-0.4 -0.4,-0.6 l -0.1,-0.1 c -0.1,-0.2 -0.2,-0.3 -0.4,-0.5 -0.1,-0.2 -0.3,-0.4 -0.4,-0.5 l 0,0 c -0.1,-0.2 -0.3,-0.3 -0.4,-0.5 -0.2,-0.2 -0.3,-0.3 -0.5,-0.5 -0.2,-0.2 -0.3,-0.3 -0.5,-0.5 -0.2,-0.2 -0.4,-0.3 -0.5,-0.5 -0.2,-0.2 -0.5,-0.4 -0.8,-0.6 l -0.4,-0.2 c -0.2,-0.1 -0.4,-0.2 -0.5,-0.3 -0.2,-0.1 -0.4,-0.3 -0.7,-0.4 l -0.1,-0.1 c -0.2,-0.1 -0.4,-0.2 -0.6,-0.3 -0.2,-0.1 -0.4,-0.2 -0.7,-0.3 l -0.1,0 c -3.1,-1.3 -5.9,-3 -8.4,-5.1 -3.1,-2.7 -5.6,-5.9 -7.4,-9.5 l 0,0 c -1.4,-2.9 -2.4,-6.1 -2.9,-9.3 0,-0.1 0,-0.3 -0.1,-0.4 -0.8,-5.1 -4.2,-9.6 -9.3,-11.7 -5.1,-2.1 -10.7,-1.2 -14.8,1.9 -0.2,0.2 -0.4,0.3 -0.6,0.4 -1.9,1.6 -3.5,3.6 -4.4,6 -1,2.4 -1.3,4.9 -1,7.4 l 0,0 c 0,0.2 0.1,0.5 0.1,0.7 l 0,0 c 0.8,5.1 4.2,9.6 9.3,11.7 l 0,0 c 2.2,0.9 4.2,2 6.1,3.3 0.4,0.3 0.8,0.6 1.2,0.9 l 0,0 c 0.4,0.3 0.7,0.6 1.1,0.9 l 0,0 0,0 0,0 c 3.1,2.7 5.6,5.9 7.3,9.5 1.4,2.8 2.4,5.8 2.8,8.9 l 0,0.1 c 0,0.3 0.1,0.5 0.1,0.8 0,0.3 0.1,0.6 0.2,0.9 0.1,0.2 0.1,0.5 0.2,0.7 l 0.1,0.2 0,0 c 0.1,0.2 0.1,0.4 0.2,0.6 0.1,0.2 0.2,0.5 0.3,0.7 l 0.1,0.3 0,0 c 0.1,0.2 0.2,0.4 0.3,0.6 0.1,0.3 0.3,0.5 0.4,0.8 l 0,0 c 0.1,0.2 0.3,0.5 0.4,0.7 0.2,0.2 0.3,0.5 0.5,0.7 0.2,0.2 0.3,0.5 0.5,0.7 0.1,0.1 0.2,0.3 0.4,0.4 0.2,0.2 0.4,0.5 0.6,0.7 0.2,0.2 0.3,0.3 0.5,0.5 0.1,0.1 0.3,0.2 0.4,0.4 0.2,0.2 0.4,0.4 0.6,0.5 0.2,0.2 0.5,0.3 0.7,0.5 0.2,0.2 0.5,0.3 0.7,0.5 0.1,0.1 0.3,0.2 0.5,0.3 l 0.4,0.2 0.3,0.1 c 0.1,0.1 0.3,0.1 0.4,0.2 0.2,0.1 0.4,0.2 0.7,0.3 l 0.1,0 c 0.2,0.1 0.4,0.2 0.7,0.3 7.6,2.7 16,-1.1 19.1,-8.6 0.5,-0.7 0.7,-1.6 0.9,-2.5 z"
       class="st0" /><path
       style="fill:#9bb7bf"
       id="path9"
       d="m -438.6,415.9 c 0.1,0.1 0.3,0.2 0.4,0.3 0.1,0.1 0.2,0.2 0.3,0.3 0.2,0.1 0.3,0.2 0.5,0.3 0.2,0.1 0.3,0.2 0.5,0.4 l 0.3,0.2 0.3,0.2 0.2,0.1 c 0.1,0.1 0.2,0.1 0.4,0.2 0.1,0.1 0.3,0.1 0.4,0.2 l 0.2,0.1 c 0.2,0.1 0.3,0.1 0.5,0.2 l 0.1,0.1 c 0.2,0.1 0.4,0.1 0.6,0.2 l 0.1,0 c 0.2,0.1 0.3,0.1 0.5,0.2 l 0.2,0.1 c 0.1,0 0.3,0.1 0.4,0.1 l 0.2,0.1 c 0.1,0 0.3,0.1 0.4,0.1 0.1,0 0.2,0.1 0.3,0.1 0.1,0 0.2,0.1 0.4,0.1 l 0.2,0 c 0.2,0 0.4,0.1 0.6,0.1 0.2,0 0.4,0.1 0.6,0.1 l 0.1,0 c 0.2,0 0.4,0 0.5,0 l 0.2,0 c 0.2,0 0.4,0 0.6,0 l 0.1,0 c 0.2,0 0.4,0 0.6,0 0.2,0 0.4,0 0.7,0 l 0.1,0 c 0.2,0 0.4,0 0.6,-0.1 0.2,0 0.4,-0.1 0.7,-0.1 l 0.1,0 c 0.2,0 0.4,-0.1 0.6,-0.1 0.2,-0.1 0.5,-0.1 0.7,-0.2 0.2,-0.1 0.4,-0.1 0.7,-0.2 0.2,-0.1 0.4,-0.2 0.7,-0.2 0.3,-0.1 0.6,-0.2 0.9,-0.4 0.1,-0.1 0.3,-0.1 0.4,-0.2 0.2,-0.1 0.4,-0.2 0.6,-0.3 0.2,-0.1 0.4,-0.2 0.6,-0.4 l 0.1,-0.1 c 0.2,-0.1 0.4,-0.2 0.6,-0.4 0.2,-0.1 0.4,-0.3 0.6,-0.4 l 0.1,0 c 2.7,-2.1 5.6,-3.7 8.6,-4.7 3.9,-1.4 7.9,-1.9 11.9,-1.7 l 0,0 c 3.3,0.2 6.5,0.9 9.5,2.1 0.1,0.1 0.3,0.1 0.4,0.2 4.8,1.8 10.4,1.2 14.8,-2.2 4.4,-3.4 6.4,-8.7 5.8,-13.8 0,-0.2 -0.1,-0.5 -0.1,-0.7 -0.4,-2.4 -1.4,-4.8 -3,-6.9 -1.6,-2.1 -3.6,-3.6 -5.9,-4.6 l 0,0 c -0.2,-0.1 -0.5,-0.2 -0.7,-0.3 l 0,0 c -4.8,-1.8 -10.4,-1.1 -14.7,2.2 l 0,0 c -1.9,1.5 -3.8,2.7 -5.9,3.6 -0.5,0.2 -0.9,0.4 -1.4,0.6 l 0,0 c -0.4,0.2 -0.9,0.3 -1.3,0.5 l 0,0 0,0 0,0 c -3.9,1.3 -7.9,1.9 -11.9,1.6 -3.1,-0.2 -6.2,-0.9 -9.2,-2 l 0,0 c -0.3,-0.1 -0.5,-0.2 -0.8,-0.3 -0.3,-0.1 -0.5,-0.2 -0.8,-0.3 -0.2,-0.1 -0.5,-0.1 -0.7,-0.2 l -0.2,-0.1 0,0 c -0.2,-0.1 -0.4,-0.1 -0.7,-0.1 -0.3,0 -0.5,-0.1 -0.8,-0.1 l -0.3,0 0,0 c -0.2,0 -0.5,0 -0.7,-0.1 -0.3,0 -0.6,0 -0.8,0 l 0,0 c -0.3,0 -0.6,0 -0.9,0 -0.3,0 -0.6,0 -0.9,0.1 -0.3,0 -0.6,0.1 -0.9,0.1 -0.2,0 -0.4,0.1 -0.5,0.1 -0.3,0.1 -0.6,0.1 -0.9,0.2 -0.2,0.1 -0.5,0.1 -0.7,0.2 -0.2,0.1 -0.3,0.1 -0.5,0.2 -0.3,0.1 -0.5,0.2 -0.8,0.3 -0.3,0.1 -0.5,0.2 -0.8,0.3 -0.3,0.1 -0.5,0.3 -0.8,0.4 -0.2,0.1 -0.3,0.2 -0.5,0.3 -0.1,0.1 -0.2,0.1 -0.4,0.2 l -0.2,0.2 c -0.1,0.1 -0.3,0.2 -0.4,0.3 -0.2,0.1 -0.4,0.3 -0.6,0.4 l -0.1,0 c -0.2,0.1 -0.4,0.3 -0.6,0.5 -6.1,5.3 -7.1,14.5 -2,20.9 0.5,0.6 1.2,1.3 1.9,1.9 z"
       class="st0" /><path
       style="fill:#9bb7bf"
       id="path11"
       d="m -378.4,412.5 c 0.2,-0.1 0.3,-0.1 0.5,-0.2 0.1,-0.1 0.3,-0.1 0.4,-0.2 0.2,-0.1 0.4,-0.2 0.5,-0.2 0.2,-0.1 0.4,-0.2 0.6,-0.3 0.1,-0.1 0.2,-0.1 0.3,-0.2 0.1,-0.1 0.2,-0.1 0.3,-0.2 l 0.2,-0.1 c 0.1,-0.1 0.2,-0.1 0.4,-0.2 0.1,-0.1 0.2,-0.2 0.4,-0.2 l 0.2,-0.1 c 0.1,-0.1 0.3,-0.2 0.4,-0.3 l 0.1,-0.1 c 0.2,-0.1 0.3,-0.3 0.5,-0.4 l 0,0 c 0.1,-0.1 0.3,-0.2 0.4,-0.3 l 0.2,-0.2 c 0.1,-0.1 0.2,-0.2 0.3,-0.3 l 0.2,-0.2 0.3,-0.3 0.2,-0.3 0.2,-0.3 0.1,-0.2 c 0.1,-0.1 0.3,-0.3 0.4,-0.5 0.1,-0.2 0.2,-0.3 0.4,-0.5 l 0.1,-0.1 c 0.1,-0.1 0.2,-0.3 0.3,-0.4 l 0.1,-0.1 c 0.1,-0.2 0.2,-0.3 0.3,-0.5 l 0,-0.1 c 0.1,-0.2 0.2,-0.4 0.3,-0.6 0.1,-0.2 0.2,-0.4 0.3,-0.6 l 0,-0.1 c 0.1,-0.2 0.2,-0.4 0.2,-0.6 0.1,-0.2 0.2,-0.4 0.2,-0.6 l 0,-0.1 c 0.1,-0.2 0.1,-0.4 0.2,-0.6 0.1,-0.2 0.1,-0.4 0.2,-0.7 0.1,-0.2 0.1,-0.5 0.1,-0.7 0,-0.2 0.1,-0.5 0.1,-0.7 0,-0.3 0.1,-0.6 0.1,-1 0,-0.1 0,-0.3 0,-0.4 0,-0.2 0,-0.4 0,-0.6 0,-0.3 0,-0.5 0,-0.8 l 0,-0.2 c 0,-0.2 0,-0.4 0,-0.7 0,-0.2 0,-0.5 -0.1,-0.7 l 0,-0.1 c -0.5,-3.4 -0.4,-6.7 0.2,-9.8 0.7,-4 2.3,-7.8 4.5,-11.2 l 0,0 c 1.8,-2.7 4,-5.2 6.6,-7.2 0.1,-0.1 0.2,-0.2 0.3,-0.3 4,-3.3 6.2,-8.5 5.4,-13.9 -0.8,-5.5 -4.4,-9.8 -9.1,-11.9 -0.2,-0.1 -0.5,-0.2 -0.7,-0.3 -2.3,-0.9 -4.8,-1.2 -7.4,-0.8 -2.6,0.4 -4.9,1.4 -6.9,2.8 l 0,0 c -0.2,0.2 -0.4,0.3 -0.6,0.5 l 0,0 c -3.9,3.3 -6.2,8.4 -5.4,13.9 l 0,0 c 0.3,2.3 0.4,4.7 0.2,6.9 0,0.5 -0.1,1 -0.2,1.5 l 0,0 c -0.1,0.5 -0.1,0.9 -0.2,1.4 l 0,0 0,0 0,0 c -0.7,4 -2.3,7.8 -4.5,11.1 -1.7,2.6 -3.8,5 -6.3,7 l 0,0 c -0.2,0.2 -0.4,0.3 -0.6,0.5 -0.2,0.2 -0.4,0.4 -0.7,0.6 -0.2,0.2 -0.4,0.3 -0.5,0.5 l -0.2,0.2 0,0 c -0.2,0.2 -0.3,0.3 -0.4,0.5 -0.2,0.2 -0.3,0.4 -0.5,0.6 l -0.2,0.3 0,0 c -0.1,0.2 -0.3,0.4 -0.4,0.6 -0.2,0.2 -0.3,0.5 -0.5,0.7 l 0,0 c -0.1,0.2 -0.3,0.5 -0.4,0.7 -0.1,0.3 -0.3,0.5 -0.4,0.8 -0.1,0.3 -0.2,0.5 -0.3,0.8 -0.1,0.2 -0.1,0.3 -0.2,0.5 -0.1,0.3 -0.2,0.6 -0.3,0.9 -0.1,0.2 -0.1,0.5 -0.2,0.7 0,0.2 -0.1,0.3 -0.1,0.5 0,0.3 -0.1,0.6 -0.1,0.8 0,0.3 -0.1,0.6 -0.1,0.8 0,0.3 0,0.6 0,0.9 0,0.2 0,0.4 0,0.5 0,0.1 0,0.3 0,0.4 l 0,0.3 c 0,0.2 0,0.3 0,0.5 0,0.2 0,0.5 0.1,0.7 l 0,0.1 c 0,0.2 0.1,0.5 0.1,0.7 1.5,7.9 9,13.3 17.1,12.2 1.2,0.4 2.1,0.1 3,-0.2 z"
       class="st0" /><circle
       style="fill:#3c7383"
       id="circle13"
       r="15.2"
       cy="404.39999"
       cx="-428.5"
       class="st1" /><circle
       style="fill:#3c7383"
       id="circle15"
       r="15.2"
       cy="433.89999"
       cx="-355.39999"
       class="st1" /><circle
       style="fill:#3c7383"
       id="circle17"
       r="15.2"
       cy="355.70001"
       cx="-366.39999"
       class="st1" /></g></svg>