<?xml version="1.0" encoding="UTF-8" standalone="no"?>
<!-- Generator: Adobe Illustrator 19.1.0, SVG Export Plug-In . SVG Version: 6.00 Build 0)  -->

<svg
   xmlns:dc="http://purl.org/dc/elements/1.1/"
   xmlns:cc="http://creativecommons.org/ns#"
   xmlns:rdf="http://www.w3.org/1999/02/22-rdf-syntax-ns#"
   xmlns:svg="http://www.w3.org/2000/svg"
   xmlns="http://www.w3.org/2000/svg"
   xmlns:sodipodi="http://sodipodi.sourceforge.net/DTD/sodipodi-0.dtd"
   xmlns:inkscape="http://www.inkscape.org/namespaces/inkscape"
   version="1.1"
   id="Layer_1"
   x="0px"
   y="0px"
   viewBox="-445.3 340.5 599.99998 331.10002"
   xml:space="preserve"
   inkscape:version="0.91 r13725"
   sodipodi:docname="wgsa.svg"
   width="600"
   height="331.10001"><metadata
     id="metadata39"><rdf:RDF><cc:Work
         rdf:about=""><dc:format>image/svg+xml</dc:format><dc:type
           rdf:resource="http://purl.org/dc/dcmitype/StillImage" /><dc:title></dc:title></cc:Work></rdf:RDF></metadata><defs
     id="defs37" /><sodipodi:namedview
     pagecolor="#ffffff"
     bordercolor="#666666"
     borderopacity="1"
     objecttolerance="10"
     gridtolerance="10"
     guidetolerance="10"
     inkscape:pageopacity="0"
     inkscape:pageshadow="2"
     inkscape:window-width="1006"
     inkscape:window-height="1052"
     id="namedview35"
     showgrid="false"
     fit-margin-top="95.25"
     fit-margin-bottom="95.25"
     fit-margin-left="0"
     fit-margin-right="0"
     inkscape:zoom="0.68974103"
     inkscape:cx="191.40002"
     inkscape:cy="167.95"
     inkscape:window-x="10"
     inkscape:window-y="34"
     inkscape:window-maximized="0"
     inkscape:current-layer="Layer_1" /><style
     type="text/css"
     id="style3">
	.st0{fill:#673C90;stroke:#673C90;stroke-width:2;stroke-miterlimit:10;}
	.st1{opacity:0.93;fill:#B15DA0;}
	.st2{opacity:0.6;fill:#663B8E;}
	.st3{opacity:0.53;fill:#3C7384;}
	.st4{opacity:0.71;}
	.st5{opacity:0.26;fill:#80569E;}
	.st6{opacity:0.88;}
	.st7{opacity:0.36;fill:#663B8E;}
	.st8{opacity:0.36;fill:#663C8D;}
	.st9{opacity:0.64;fill:#663B8E;}
	.st10{fill:#673C90;}
	.st11{fill:#663B8E;}
</style><path
     class="st0"
     d="m -41.243507,557.65462 -29.268292,0.15405 0,11.39923 17.252888,0 0,23.10654 c -3.234917,2.4647 -7.240051,4.77536 -11.861361,6.62388 -4.775353,1.84852 -10.012837,2.77279 -15.404366,2.77279 0,0 -0.154043,0 -0.154043,0 -5.699615,0 -10.937099,-0.92427 -15.558408,-2.92683 -4.621311,-2.00257 -8.626441,-4.77536 -11.861361,-8.31836 -3.23492,-3.543 -5.85366,-7.70218 -7.54814,-12.47754 -1.84852,-4.77535 -2.61874,-10.16688 -2.77278,-15.86649 l 0,-0.30809 c 0,-5.23748 0.92426,-10.32092 2.61874,-15.09628 1.84852,-4.77535 4.31322,-8.93453 7.39409,-12.47753 3.08088,-3.54301 6.93197,-6.31579 11.399232,-8.4724 4.467266,-2.15661 9.242619,-3.08087 14.480103,-3.23492 3.38896,0 6.469833,0.30809 9.24262,0.77022 2.772786,0.61617 5.391528,1.23235 7.702182,2.15661 2.310655,0.92426 4.467266,2.15661 6.469833,3.38896 2.002568,1.38639 4.005135,2.77279 5.699615,4.46727 l 0.616175,0.46213 8.010269,-9.55071 -0.616174,-0.46213 c -2.464699,-2.00257 -4.929397,-3.85109 -7.548139,-5.54557 -2.618742,-1.69448 -5.391527,-3.08087 -8.318357,-4.15918 -2.926829,-1.0783 -6.161745,-2.00257 -9.550706,-2.4647 -3.38896,-0.61617 -7.240052,-0.77022 -11.245187,-0.77022 -7.394095,0 -14.172015,1.3864 -20.179716,4.15918 -6.0077,2.77279 -11.24519,6.62388 -15.55841,11.24519 -4.31322,4.62131 -7.70218,10.16688 -10.01284,16.32863 -2.31065,6.16174 -3.543,12.63157 -3.543,19.40949 l 0,0.30809 c 0,6.93197 1.23235,13.70989 3.543,19.71759 2.31066,6.16174 5.69962,11.55327 10.01284,16.17458 4.31322,4.62131 9.70475,8.16431 15.8665,10.78306 6.161742,2.61874 13.093705,3.85109 20.641844,3.85109 0,0 0.154044,0 0.154044,0 8.318358,0 15.866497,-1.54044 22.644417,-4.46727 1.69448,-0.77022 3.38896,-1.54043 5.391527,-2.61874 l 0,7.08601 11.861361,0 0,-55.14763 z"
     id="path5"
     inkscape:connector-curvature="0"
     style="fill:#673c90;stroke:#673c90;stroke-width:3.08087277;stroke-miterlimit:10" /><path
     class="st1"
     d="m -283.09203,496.96143 c 0,0 0,0 0,0 -16.02054,-6.62388 -23.56868,-24.95507 -16.9448,-40.82157 2.15661,-5.23748 5.69961,-9.5507 9.85879,-12.78562 l 0,0 -19.10141,-24.80103 c -5.23749,4.00514 -10.01284,8.93453 -13.86393,14.63415 -2.31065,3.38896 -4.31322,7.08601 -5.85366,10.9371 -1.69448,3.85109 -2.77278,7.85622 -3.543,11.86136 -2.61874,13.55584 -0.61618,27.41977 5.23748,39.43517 3.69705,7.3941 8.78049,14.01797 15.09628,19.56354 4.9294,4.31323 10.78305,8.01027 17.25289,10.62901 l 0,0 11.86136,-28.65211 c 0,0 0,0 0,0 z"
     id="path7"
     inkscape:connector-curvature="0"
     style="opacity:0.93000034;fill:#b15da0" /><path
     class="st2"
     d="m -384.45275,421.17195 c -2.92683,-6.0077 -4.9294,-12.63158 -5.85366,-19.25545 l 0,0 c 0.77022,5.23748 0,10.78305 -2.15661,16.02054 -6.62388,15.86649 -24.95507,23.41463 -40.82157,16.79075 l 0,0 -12.0154,28.80617 c 6.46983,2.61874 13.09371,4.15917 19.71759,4.62131 8.31835,0.61617 16.63671,-0.61618 24.49294,-3.23492 12.63157,-4.31322 23.87676,-12.63158 31.57894,-24.18485 -6.31579,-5.54557 -11.39923,-12.16945 -14.94223,-19.56355 z"
     id="path9"
     inkscape:connector-curvature="0"
     style="opacity:0.6;fill:#663b8e" /><path
     class="st3"
     d="m -283.09203,496.96143 c 0,0 0,0 0,0 -6.46984,-2.61875 -13.09371,-4.15918 -19.71759,-4.62131 -8.4724,-0.61618 -16.79076,0.61617 -24.49294,3.23491 -12.63158,4.31323 -23.87676,12.63158 -31.73299,24.18486 -2.31065,3.38896 -4.31322,7.086 -5.85366,10.93709 -1.69448,3.8511 -2.77278,7.85623 -3.543,11.86137 -1.38639,6.77792 -1.54044,13.55584 -0.61618,20.17971 l 30.96278,-4.00513 0,0 c -0.77022,-5.23749 0,-10.78306 2.15661,-16.02054 6.62387,-15.8665 24.95507,-23.41463 40.82156,-16.79076 0,0 0,0 0,0 l 12.01541,-28.9602 c 0,0 0,0 0,0 z"
     id="path11"
     inkscape:connector-curvature="0"
     style="opacity:0.52999998;fill:#3c7384" /><g
     class="st4"
     id="g13"
     style="opacity:0.70999995"
     transform="matrix(1.5404364,0,0,1.5404364,226.17626,-135.69581)"><path
       class="st5"
       d="m -386,440.3 c -0.9,4.4 -1,8.8 -0.4,13.1 l 20.1,-2.6 c -0.6,-4.4 -1.9,-8.6 -3.8,-12.5 -2.4,-4.8 -5.7,-9.1 -9.8,-12.7 -1.5,2.2 -2.8,4.6 -3.8,7.1 -1,2.4 -1.8,5 -2.3,7.6 z"
       id="path15"
       inkscape:connector-curvature="0"
       style="opacity:0.26000001;fill:#80569e" /><path
       class="st5"
       d="m -391,418.5 c -4.2,-1.7 -8.5,-2.7 -12.8,-3 -5.5,-0.4 -10.9,0.4 -15.9,2.1 -4.2,1.4 -8.1,3.5 -11.6,6.2 l 12.4,16.1 0,0 c 5.6,-4.2 13.2,-5.5 20.1,-2.6 7,2.9 11.5,9.2 12.4,16.1 l 0,0 c -0.6,-4.3 -0.5,-8.7 0.4,-13.1 0.5,-2.6 1.3,-5.2 2.3,-7.7 1.1,-2.5 2.3,-4.9 3.8,-7.1 -3.2,-2.9 -6.9,-5.2 -11.1,-7 z"
       id="path17"
       inkscape:connector-curvature="0"
       style="opacity:0.26000001;fill:#80569e" /></g><g
     class="st6"
     id="g19"
     style="opacity:0.87999998"
     transform="matrix(1.5404364,0,0,1.5404364,226.17626,-135.69581)"><path
       class="st7"
       d="m -403.8,415.6 0,0 c 1.8,-8.9 0.4,-17.9 -3.4,-25.7 -5,1.7 -10.4,2.5 -15.9,2.1 -4.3,-0.3 -8.6,-1.2 -12.8,-3 l 0,0 c 10.4,4.3 15.3,16.1 11,26.5 -1.4,3.4 -3.7,6.2 -6.4,8.3 l 0,0 c 0.1,-0.1 0.1,-0.1 0.2,-0.2 -0.1,0.1 -0.1,0.1 -0.2,0.2 l 12.4,16.1 c 0,0 6.9,-7 9,-9.5 1.6,-2.1 2.8,-4.6 3.8,-7.1 1,-2.6 1.8,-5.2 2.3,-7.7 z"
       id="path21"
       inkscape:connector-curvature="0"
       style="opacity:0.36000001;fill:#663b8e" /><path
       class="st7"
       d="m -423.1,392 c 5.4,0.4 10.8,-0.4 15.9,-2.1 -2.4,-4.8 -5.6,-9.1 -9.7,-12.7 -3.2,-2.8 -7,-5.2 -11.2,-6.9 l -7.8,18.7 c 4.2,1.7 8.5,2.7 12.8,3 z"
       id="path23"
       inkscape:connector-curvature="0"
       style="opacity:0.36000001;fill:#663b8e" /></g><path
     class="st8"
     d="m -360.11385,417.93704 c 1.38639,-6.77792 1.69448,-13.55584 0.77021,-20.17972 l -31.11681,4.00513 c 0.92426,6.77792 2.92683,13.24776 5.85366,19.25546 3.543,7.39409 8.62644,14.01797 14.94223,19.56354 2.31065,-3.38896 4.15918,-6.93196 5.85366,-10.9371 1.69448,-3.69704 2.92683,-7.70218 3.69705,-11.70731 z"
     id="path25"
     inkscape:connector-curvature="0"
     style="opacity:0.36000001;fill:#663c8d" /><path
     class="st9"
     d="m -332.386,455.98582 c 8.16431,0.61617 16.48267,-0.46213 24.3389,-3.23492 6.31579,-2.15661 12.32349,-5.23748 17.86906,-9.55071 l -19.10141,-24.80102 c 0,0 0,0 0,0 l 0,0 c 0,0 0,0 0,0 l 0,0 c 0,0 -0.15405,0 -0.15405,0.15404 -8.62644,6.46983 -20.17971,8.31836 -30.80872,4.00514 -10.62902,-4.46727 -17.56098,-14.01798 -19.10142,-24.80103 l -0.15404,0 -30.96277,4.00513 c 0.92426,6.77792 2.92683,13.24776 5.85366,19.25546 3.543,7.39409 8.62644,14.01797 14.94223,19.56354 5.08344,4.31322 10.78305,8.01027 17.25289,10.78306 6.62387,2.61874 13.24775,4.15918 20.02567,4.62131 m 14.32606,-29.2683 c -0.15404,0.15405 -0.30809,0.30809 -0.46213,0.46214 0.15404,-0.15405 0.30809,-0.30809 0.46213,-0.46214 z"
     id="path27"
     inkscape:connector-curvature="0"
     style="opacity:0.63999999;fill:#663b8e" /><polygon
     class="st10"
     points="-293.4,464.6 -304.6,420.9 -305,419 -317,419 -298.9,484.7 -298.4,486.5 -289.5,486.5 -275.8,441.4 -263,484.8 -262.5,486.5 -253.5,486.5 -235.4,419 -247.1,419 -258.3,464.6 -270.8,420.7 -271.3,419 -280.1,419 "
     id="polygon29"
     style="fill:#673c90"
     transform="matrix(1.5404364,0,0,1.5404364,226.17626,-135.69581)" /><path
     class="st11"
     d="m 42.094102,533.9319 c -0.92426,-1.0783 -2.4647,-2.15661 -4.31322,-3.38896 -1.84852,-1.23235 -4.00513,-2.31065 -6.46983,-3.38896 -2.4647,-1.0783 -5.23749,-2.00257 -8.31836,-2.61874 -3.08087,-0.61618 -6.31579,-1.07831 -9.70475,-1.07831 -6.4698298,0 -11.2451798,1.23235 -14.6341398,3.85109 -3.38897,2.4647 -4.929402,6.16175 -4.929402,10.62902 0,2.46469 0.462131,4.62131 1.540432,6.16174 1.07831,1.54044 2.61875,2.92683 4.77536001,4.15918 2.15660999,1.23235 4.77534999,2.15661 8.01026999,3.08087 3.2349098,0.92427 6.9319598,2.00257 11.2451798,2.92683 5.08344,1.3864 9.70475,2.77279 14.01798,4.31322 4.31322,1.3864 7.85622,3.23492 10.78305,5.54558 2.92683,2.15661 5.23748,4.92939 6.93196,8.16431 1.69448,3.23492 2.4647,7.24005 2.4647,12.0154 0,5.39153 -1.0783,10.16688 -3.08087,13.86393 -2.00257,3.85109 -4.77535,6.93197 -8.31836,9.24262 -3.38896,2.4647 -7.54814,4.15918 -12.0154,5.23748 -4.62131,1.07831 -9.39666,1.69448 -14.63415,1.69448 -7.8562198,0 -15.55840979,-1.23235 -22.9525008,-3.543 -7.3940952,-2.4647 -14.1720152,-5.85366 -20.0256742,-10.47497 l 7.548139,-14.01797 c 1.232349,1.23235 3.080873,2.61874 5.391528,4.31322 2.310654,1.54044 5.0834402,2.92683 8.3183562,4.31322 3.234912,1.3864 6.62388201,2.4647 10.474972,3.38896 3.85109,0.92427 7.7021798,1.3864 11.8613598,1.3864 6.31579,0 11.09114,-1.07831 14.63414,-3.38896 3.38896,-2.31066 5.23749,-5.69962 5.23749,-10.01284 0,-2.61874 -0.61618,-4.77535 -1.84853,-6.62388 -1.23235,-1.69448 -3.08087,-3.23491 -5.54557,-4.62131 -2.4647,-1.38639 -5.39153,-2.46469 -8.93453,-3.543 -3.543,-1.0783 -7.54814,-2.15661 -12.0153998,-3.23492 -5.23749,-1.38639 -9.70475,-2.77278 -13.555844,-4.31322 -3.851091,-1.54043 -7.0860082,-3.38896 -9.5507062,-5.54557 -2.464699,-2.15661 -4.467266,-4.62131 -5.853659,-7.54814 -1.386393,-2.92683 -2.002567,-6.31579 -2.002567,-10.47497 0,-5.08344 0.924262,-9.5507 2.926829,-13.55584 1.848524,-4.00513 4.467266,-7.24005 7.856226,-10.01283 3.3889602,-2.61875 7.3940912,-4.77536 11.86136121,-6.00771 4.62130999,-1.38639 9.55070999,-2.00256 14.78818979,-2.00256 7.24005,0 13.70988,1.0783 19.71759,3.38896 5.85365,2.31065 11.09114,5.08344 15.5584,8.31835 l -7.24005,13.4018 z"
     id="path31"
     inkscape:connector-curvature="0"
     style="fill:#663b8e" /><path
     class="st11"
     d="m 57.652512,613.26438 41.89988,-103.82542 13.401788,0 41.74583,103.82542 -17.40693,0 -11.09114,-28.18999 -40.051348,0 -10.78306,28.18999 -17.71502,0 z m 48.523748,-85.49422 -17.252888,45.13478 33.889608,0 -16.63672,-45.13478 z"
     id="path33"
     inkscape:connector-curvature="0"
     style="fill:#663b8e" /></svg>